<svg version="1.2" baseProfile="tiny-ps" xmlns="http://www.w3.org/2000/svg" viewBox="0 0 20 29" width="20" height="29">
	<title>google-mic-seeklogo</title>
	<defs>
		<clipPath clipPathUnits="userSpaceOnUse" id="cp1">
			<path d="M0.1 0.1L19.9 0.1L19.9 28.87L0.1 28.87L0.1 0.1Z" />
		</clipPath>
	</defs>
	<style>
		tspan { white-space:pre }
		.shp0 { fill: #4285f4 } 
		.shp1 { fill: #34a853 } 
		.shp2 { fill: #fbbc05 } 
		.shp3 { fill: #ea4335 } 
	</style>
	<g id="layer1">
		<g id="g17472">
			<g id="Clip-Path: g17474" clip-path="url(#cp1)">
				<g id="g17474">
					<g id="g17480">
						<path id="path17482" class="shp0" d="M5.76 14.43L5.76 4.4C5.76 2.02 7.66 0.1 10.01 0.1C12.36 0.1 14.26 2.02 14.26 4.4L14.24 14.43C14.24 16.81 12.36 18.73 10.01 18.73C7.66 18.73 5.76 16.81 5.76 14.43Z" />
					</g>
					<g id="g17484">
						<path id="path17486" class="shp1" d="M10.02 24.47C10.5 24.47 10.96 24.47 11.42 24.4L11.42 28.86L8.59 28.86L8.59 24.35L8.59 24.35C9.06 24.42 9.53 24.47 10.02 24.47Z" />
					</g>
					<g id="g17488">
						<path id="path17490" class="shp2" d="M3 21.53C3.01 21.54 3.01 21.54 3.02 21.55L3 21.57C1.21 19.76 0.1 17.4 0.1 14.53L2.93 14.53C2.93 16.67 3.71 18.25 4.98 19.55L3 21.53Z" />
					</g>
					<g id="g17492">
						<path id="path17494" class="shp3" d="M19.9 14.53C19.9 19.55 16.23 23.71 11.42 24.4C10.96 24.47 10.5 24.47 10.02 24.47C9.53 24.47 9.06 24.42 8.59 24.36C6.43 24.04 4.5 23.04 3.02 21.55C3.01 21.54 3.01 21.54 3 21.53L4.98 19.54L5 19.52C6.28 20.82 8.06 21.65 10.01 21.65C13.92 21.65 17.07 18.12 17.07 14.53L19.9 14.53Z" />
					</g>
				</g>
			</g>
		</g>
	</g>
</svg>