<svg id="Capa_1" enable-background="new 0 0 512.376 512.376" height="512" viewBox="0 0 512.376 512.376" width="512" xmlns="http://www.w3.org/2000/svg"><g><g><path d="m155.045 512.376c-27.636 0-50.12-22.452-50.12-50.05v-327.545c0-8.284 6.716-15 15-15s15 6.716 15 15v327.545c0 11.056 9.025 20.05 20.12 20.05 11.094 0 20.12-8.994 20.12-20.05v-122.921c1.197-31.417 25.841-57.957 58.311-57.827 31.886 0 57.826 25.941 57.826 57.827v50.031c0 23.751 19.323 43.074 43.074 43.074s43.074-19.323 43.074-43.074v-133.436c0-8.284 6.716-15 15-15s15 6.716 15 15v133.436c0 40.293-32.781 73.074-73.074 73.074s-73.074-32.781-73.074-73.074v-50.031c0-15.344-12.483-27.827-27.826-27.827-17.529-.111-28.564 15.082-28.311 31.622v119.126c0 27.598-22.483 50.05-50.12 50.05z" fill="#e7e2ee"/><path d="m392.451 241c-8.284 0-15 6.716-15 15v133.436c0 23.751-19.323 43.074-43.074 43.074s-43.074-19.323-43.074-43.074v-50.031c0-31.886-25.94-57.827-57.826-57.827v30c15.343 0 27.826 12.483 27.826 27.827v50.031c0 40.293 32.781 73.074 73.074 73.074s73.074-32.781 73.074-73.074v-133.436c0-8.284-6.716-15-15-15z" fill="#bebcdd"/></g><g><g><g><g><path d="m335.464 107.565c26.671 0 49.298 15.51 57.72 37.124 8.422-21.614 31.05-37.124 57.72-37.124 33.846 0 61.049 24.933 61.283 55.689.067 8.817-2.818 18.214-7.729 27.791l-112.007 10-110.253-10c-4.972-9.577-7.949-18.974-8.016-27.791-.235-30.755 27.437-55.689 61.282-55.689z" fill="#f9f2f2"/></g><path d="m450.904 107.565c-26.67 0-49.298 15.509-57.72 37.123v56.291l111.273-9.935c4.912-9.577 7.796-18.974 7.729-27.791-.234-30.754-27.437-55.688-61.282-55.688z" fill="#e2dff4"/></g><g><path d="m282.203 191.042c20.906 40.277 77.085 83.749 100.506 100.733 6.256 4.537 14.705 4.549 20.975.032 23.545-16.961 80.1-60.463 100.767-100.765z" fill="#ff6b6b"/><path d="m393.327 191.042v104.139c3.633-.022 7.261-1.143 10.357-3.374 23.545-16.961 80.1-60.463 100.767-100.765z" fill="#e20059"/></g></g><g><g><path d="m61.677 0c26.76 0 49.464 15.465 57.913 37.017 8.451-21.552 31.155-37.017 57.915-37.017 33.959 0 61.254 24.861 61.489 55.528.327 42.62-68.953 98.825-102.117 123.277-10.289 7.586-24.324 7.521-34.589-.097-33.015-24.503-101.772-80.616-102.099-123.18-.235-30.667 27.53-55.528 61.488-55.528z" fill="#ff6b6b"/></g><path d="m177.505 0c-26.759 0-49.463 15.465-57.913 37.016v147.442c6.072.016 12.146-1.863 17.285-5.653 33.164-24.452 102.443-80.657 102.117-123.277-.236-30.667-27.53-55.528-61.489-55.528z" fill="#e20059"/></g></g></g></svg>